<?xml version="1.0" encoding="utf-8"?>
<!-- Generator: Adobe Illustrator 14.0.0, SVG Export Plug-In  -->
<!DOCTYPE svg PUBLIC "-//W3C//DTD SVG 1.1//EN" "http://www.w3.org/Graphics/SVG/1.1/DTD/svg11.dtd" [
	<!ENTITY ns_flows "http://ns.adobe.com/Flows/1.0/">
]>
<svg version="1.1"
	 xmlns="http://www.w3.org/2000/svg" xmlns:xlink="http://www.w3.org/1999/xlink" xmlns:a="http://ns.adobe.com/AdobeSVGViewerExtensions/3.0/"
	 x="0px" y="0px" width="176px" height="208px" viewBox="-8.393 -9.882 176 208" enable-background="new -8.393 -9.882 176 208"
	 xml:space="preserve">
<defs>
</defs>
<ellipse fill="#F9BB1F" cx="63.672" cy="192.364" rx="1.291" ry="1.354"/>
<ellipse fill="#F9BB1F" cx="65.873" cy="192.443" rx="1.29" ry="1.354"/>
<ellipse fill="#F9BB1F" cx="68.074" cy="192.523" rx="1.29" ry="1.354"/>
<ellipse fill="#F9BB1F" cx="70.275" cy="192.603" rx="1.29" ry="1.354"/>
<ellipse fill="#F9BB1F" cx="61.319" cy="192.364" rx="1.29" ry="1.354"/>
<rect x="60.096" y="187.486" fill="#F9BB1F" width="11.469" height="4.829"/>
<polyline fill="none" stroke="#1A171B" stroke-width="2" points="62.779,187.285 68.917,191.812 70.325,186.682 "/>
<ellipse fill="#F9BB1F" cx="91.608" cy="192.472" rx="1.29" ry="1.354"/>
<ellipse fill="#F9BB1F" cx="89.407" cy="192.552" rx="1.29" ry="1.354"/>
<ellipse fill="#F9BB1F" cx="87.206" cy="192.632" rx="1.29" ry="1.354"/>
<ellipse fill="#F9BB1F" cx="85.005" cy="192.711" rx="1.29" ry="1.354"/>
<ellipse fill="#F9BB1F" cx="93.961" cy="192.472" rx="1.291" ry="1.354"/>
<rect x="83.715" y="187.595" fill="#F9BB1F" width="11.469" height="4.829"/>
<polyline fill="none" stroke="#1A171B" stroke-width="2" points="93.364,187.084 87.227,191.611 85.818,186.48 "/>
<line fill="none" stroke="#F9BB1F" x1="79.682" y1="0" x2="79.682" y2="78.476"/>
<line fill="none" stroke="#F9BB1F" x1="72.771" y1="0.267" x2="79.611" y2="78.443"/>
<line fill="none" stroke="#F9BB1F" x1="65.909" y1="1.136" x2="79.537" y2="78.418"/>
<line fill="none" stroke="#F9BB1F" x1="59.149" y1="2.598" x2="79.46" y2="78.398"/>
<line fill="none" stroke="#F9BB1F" x1="52.542" y1="4.645" x2="79.383" y2="78.387"/>
<line fill="none" stroke="#F9BB1F" x1="46.14" y1="7.259" x2="79.305" y2="78.381"/>
<line fill="none" stroke="#F9BB1F" x1="39.988" y1="10.421" x2="79.227" y2="78.383"/>
<line fill="none" stroke="#F9BB1F" x1="34.136" y1="14.107" x2="79.148" y2="78.391"/>
<line fill="none" stroke="#F9BB1F" x1="28.628" y1="18.29" x2="79.071" y2="78.406"/>
<line fill="none" stroke="#F9BB1F" x1="23.505" y1="22.937" x2="78.995" y2="78.428"/>
<line fill="none" stroke="#F9BB1F" x1="18.806" y1="28.013" x2="78.922" y2="78.456"/>
<line fill="none" stroke="#F9BB1F" x1="14.568" y1="33.479" x2="78.852" y2="78.49"/>
<line fill="none" stroke="#F9BB1F" x1="10.823" y1="39.293" x2="78.784" y2="78.53"/>
<line fill="none" stroke="#F9BB1F" x1="7.598" y1="45.412" x2="78.721" y2="78.577"/>
<line fill="none" stroke="#F9BB1F" x1="4.919" y1="51.788" x2="78.661" y2="78.628"/>
<line fill="none" stroke="#F9BB1F" x1="2.805" y1="58.374" x2="78.607" y2="78.685"/>
<line fill="none" stroke="#F9BB1F" x1="1.274" y1="65.118" x2="78.558" y2="78.746"/>
<line fill="none" stroke="#F9BB1F" x1="0.336" y1="71.971" x2="78.514" y2="78.811"/>
<line fill="none" stroke="#F9BB1F" x1="0" y1="78.879" x2="78.476" y2="78.879"/>
<line fill="none" stroke="#F9BB1F" x1="0.267" y1="85.791" x2="78.443" y2="78.951"/>
<line fill="none" stroke="#F9BB1F" x1="1.134" y1="92.652" x2="78.418" y2="79.025"/>
<line fill="none" stroke="#F9BB1F" x1="2.597" y1="99.413" x2="78.399" y2="79.102"/>
<line fill="none" stroke="#F9BB1F" x1="4.644" y1="106.02" x2="78.387" y2="79.18"/>
<line fill="none" stroke="#F9BB1F" x1="7.258" y1="112.423" x2="78.381" y2="79.258"/>
<line fill="none" stroke="#F9BB1F" x1="10.42" y1="118.574" x2="78.383" y2="79.336"/>
<line fill="none" stroke="#F9BB1F" x1="14.106" y1="124.426" x2="78.391" y2="79.414"/>
<line fill="none" stroke="#F9BB1F" x1="18.29" y1="129.936" x2="78.406" y2="79.491"/>
<line fill="none" stroke="#F9BB1F" x1="22.937" y1="135.059" x2="78.428" y2="79.566"/>
<line fill="none" stroke="#F9BB1F" x1="28.012" y1="139.758" x2="78.456" y2="79.64"/>
<line fill="none" stroke="#F9BB1F" x1="33.478" y1="143.996" x2="78.491" y2="79.71"/>
<line fill="none" stroke="#F9BB1F" x1="39.292" y1="147.741" x2="78.531" y2="79.777"/>
<line fill="none" stroke="#F9BB1F" x1="45.411" y1="150.965" x2="78.577" y2="79.841"/>
<line fill="none" stroke="#F9BB1F" x1="51.788" y1="153.645" x2="78.628" y2="79.9"/>
<line fill="none" stroke="#F9BB1F" x1="58.374" y1="155.758" x2="78.685" y2="79.954"/>
<line fill="none" stroke="#F9BB1F" x1="65.118" y1="157.289" x2="78.746" y2="80.004"/>
<line fill="#FFFFFF" stroke="#F9BB1F" x1="71.972" y1="158.228" x2="78.812" y2="80.048"/>
<line fill="#FFFFFF" stroke="#F9BB1F" x1="78.88" y1="158.563" x2="78.88" y2="80.086"/>
<line fill="#FFFFFF" stroke="#F9BB1F" x1="85.791" y1="158.297" x2="78.951" y2="80.118"/>
<line fill="#FFFFFF" stroke="#F9BB1F" x1="92.652" y1="157.429" x2="79.026" y2="80.144"/>
<line fill="#FFFFFF" stroke="#F9BB1F" x1="99.414" y1="155.966" x2="79.102" y2="80.163"/>
<line fill="#FFFFFF" stroke="#F9BB1F" x1="106.02" y1="153.919" x2="79.179" y2="80.176"/>
<line fill="#FFFFFF" stroke="#F9BB1F" x1="112.424" y1="151.305" x2="79.258" y2="80.181"/>
<line fill="#FFFFFF" stroke="#F9BB1F" x1="118.574" y1="148.142" x2="79.336" y2="80.18"/>
<line fill="#FFFFFF" stroke="#F9BB1F" x1="124.427" y1="144.455" x2="79.414" y2="80.171"/>
<line fill="#FFFFFF" stroke="#F9BB1F" x1="129.936" y1="140.272" x2="79.491" y2="80.155"/>
<line fill="#FFFFFF" stroke="#F9BB1F" x1="135.059" y1="135.626" x2="79.567" y2="80.134"/>
<line fill="#FFFFFF" stroke="#F9BB1F" x1="139.757" y1="130.55" x2="79.64" y2="80.106"/>
<line fill="#FFFFFF" stroke="#F9BB1F" x1="143.995" y1="125.084" x2="79.71" y2="80.071"/>
<line fill="#FFFFFF" stroke="#F9BB1F" x1="147.741" y1="119.27" x2="79.778" y2="80.031"/>
<line fill="#FFFFFF" stroke="#F9BB1F" x1="150.966" y1="113.15" x2="79.842" y2="79.984"/>
<line fill="#FFFFFF" stroke="#F9BB1F" x1="153.645" y1="106.773" x2="79.901" y2="79.933"/>
<line fill="#FFFFFF" stroke="#F9BB1F" x1="155.758" y1="100.188" x2="79.955" y2="79.876"/>
<line fill="#FFFFFF" stroke="#F9BB1F" x1="157.289" y1="93.443" x2="80.004" y2="79.814"/>
<line fill="#FFFFFF" stroke="#F9BB1F" x1="158.227" y1="86.59" x2="80.048" y2="79.749"/>
<line fill="#FFFFFF" stroke="#F9BB1F" x1="158.562" y1="79.682" x2="80.086" y2="79.681"/>
<line fill="#FFFFFF" stroke="#F9BB1F" x1="158.297" y1="72.771" x2="80.118" y2="79.609"/>
<line fill="#FFFFFF" stroke="#F9BB1F" x1="157.428" y1="65.908" x2="80.144" y2="79.535"/>
<line fill="#FFFFFF" stroke="#F9BB1F" x1="155.965" y1="59.148" x2="80.163" y2="79.459"/>
<line fill="#FFFFFF" stroke="#F9BB1F" x1="153.919" y1="52.542" x2="80.174" y2="79.382"/>
<line fill="#FFFFFF" stroke="#F9BB1F" x1="151.305" y1="46.138" x2="80.18" y2="79.303"/>
<line fill="#FFFFFF" stroke="#F9BB1F" x1="148.141" y1="39.987" x2="80.178" y2="79.225"/>
<line fill="#FFFFFF" stroke="#F9BB1F" x1="144.455" y1="34.135" x2="80.17" y2="79.146"/>
<line fill="#FFFFFF" stroke="#F9BB1F" x1="140.271" y1="28.627" x2="80.155" y2="79.069"/>
<line fill="#FFFFFF" stroke="#F9BB1F" x1="135.625" y1="23.504" x2="80.133" y2="78.994"/>
<line fill="#FFFFFF" stroke="#F9BB1F" x1="130.549" y1="18.806" x2="80.104" y2="78.921"/>
<line fill="#FFFFFF" stroke="#F9BB1F" x1="125.084" y1="14.567" x2="80.07" y2="78.851"/>
<line fill="#FFFFFF" stroke="#F9BB1F" x1="119.269" y1="10.822" x2="80.03" y2="78.783"/>
<line fill="#FFFFFF" stroke="#F9BB1F" x1="113.15" y1="7.597" x2="79.983" y2="78.72"/>
<line fill="#FFFFFF" stroke="#F9BB1F" x1="106.773" y1="4.918" x2="79.932" y2="78.661"/>
<line fill="#FFFFFF" stroke="#F9BB1F" x1="100.188" y1="2.804" x2="79.875" y2="78.606"/>
<line fill="#FFFFFF" stroke="#F9BB1F" x1="93.443" y1="1.273" x2="79.814" y2="78.557"/>
<line fill="#FFFFFF" stroke="#F9BB1F" x1="86.59" y1="0.336" x2="79.749" y2="78.514"/>
<ellipse fill="#F9BB1F" cx="79.029" cy="152.044" rx="14.991" ry="23.039"/>
<ellipse fill="#F9BB1F" cx="79.521" cy="131.448" rx="27.768" ry="30.606"/>
<ellipse fill="#936379" cx="79.253" cy="129.532" rx="17.506" ry="34.282"/>
<path fill="#EB742C" d="M56.593,109.218c0,0-14.487,4.561-12.073,7.244c2.415,2.683,9.658-0.27,16.366,4.292
	c6.707,4.562,1.341,33.537-0.537,41.586c-1.877,8.049-10.731,24.414-10.731,24.414s11.536,3.756,26.829,0.268l-4.829-71.097
	L56.593,109.218z"/>
<path fill="#EB742C" d="M100.77,109.296c0,0,12.373,4.154,9.951,6.83c-2.423,2.676-7.557,0.152-14.277,4.694
	c-6.72,4.541-1.437,33.532,0.418,41.586c1.855,8.055,10.662,24.445,10.662,24.445s-11.547,3.723-26.83,0.191l5.033-71.083
	L100.77,109.296z"/>
<path fill="#EB742C" d="M59.666,109.888c0,0-49.516,43.068-1.292,49.098l13.797-24.38L59.666,109.888z"/>
<path fill="#936379" stroke="#EB742C" stroke-width="2" d="M67.307,130.885c2.401,0.587,2.431,7.217,0.066,14.809
	c-2.362,7.594-6.227,13.272-8.628,12.688c-2.402-0.587-2.433-7.216-0.069-14.808C61.041,135.979,64.905,130.299,67.307,130.885z"/>
<path fill="#EB742C" d="M96.248,111.169c0,0,54.29,38.342,6.477,48.744l-18.207-23.446L96.248,111.169z"/>
<path fill="#936379" stroke="#EB742C" stroke-width="2" d="M81.973,137.456c-1.465,0.884,1.826,6.504,7.353,12.557
	c5.524,6.054,11.191,10.243,12.655,9.362c1.465-0.884-1.827-6.505-7.352-12.557C89.103,140.765,83.436,136.574,81.973,137.456z"/>
<ellipse fill="#F9BB1F" cx="113.408" cy="48.185" rx="26.703" ry="27.431"/>
<ellipse fill="#936379" cx="111.993" cy="46.38" rx="13.23" ry="14.443"/>
<ellipse fill="#F9BB1F" cx="45.179" cy="51.21" rx="26.703" ry="27.432"/>
<ellipse fill="#936379" cx="43.764" cy="49.405" rx="13.23" ry="14.444"/>
<circle fill="#F9BB1F" cx="79.148" cy="73.997" r="42.725"/>
<ellipse fill="#1A171B" cx="79.285" cy="84.249" rx="11.555" ry="20.222"/>
<circle fill="#1A171B" cx="59.752" cy="72.97" r="3.576"/>
<circle fill="#1A171B" cx="97.993" cy="72.97" r="3.577"/>
<path fill="#936379" d="M71.483,107.877c0,0,7.512,6.438,16.098,0"/>
<ellipse transform="matrix(0.82 -0.5724 0.5724 0.82 -67.2106 73.3843)" fill="#F9BB1F" cx="83.057" cy="143.54" rx="4.239" ry="3.697"/>
<ellipse transform="matrix(0.82 -0.5724 0.5724 0.82 -66.8238 71.7503)" fill="#F9BB1F" cx="80.66" cy="142.115" rx="3.449" ry="1.241"/>
<ellipse transform="matrix(0.8201 -0.5723 0.5723 0.8201 -67.4603 72.4968)" fill="#F9BB1F" cx="81.56" cy="143.529" rx="3.449" ry="1.241"/>
<ellipse transform="matrix(0.8199 -0.5725 0.5725 0.8199 -67.972 73.1805)" fill="#F9BB1F" cx="82.32" cy="144.618" rx="3.449" ry="1.24"/>
<ellipse transform="matrix(0.82 -0.5724 0.5724 0.82 -68.7301 73.9425)" fill="#F9BB1F" cx="83.184" cy="146.234" rx="3.449" ry="1.357"/>
<ellipse transform="matrix(0.9155 0.4023 -0.4023 0.9155 59.8617 -15.6245)" fill="#F9BB1F" cx="67.127" cy="134.698" rx="4.945" ry="5.081"/>
<ellipse transform="matrix(0.9182 -0.3961 0.3961 0.9182 -47.0421 37.0902)" fill="#F9BB1F" cx="66.29" cy="132.454" rx="1.302" ry="3.648"/>
<ellipse transform="matrix(0.9183 -0.396 0.396 0.9183 -47.6016 36.4293)" fill="#F9BB1F" cx="64.435" cy="133.51" rx="1.365" ry="3.647"/>
<ellipse transform="matrix(0.991 -0.1339 0.1339 0.991 -16.3093 10.1339)" fill="#F9BB1F" cx="67.198" cy="126.338" rx="1.397" ry="7.791"/>
<ellipse transform="matrix(0.9344 0.3563 -0.3563 0.9344 49.7713 -17.2826)" fill="#F9BB1F" cx="71.801" cy="126.468" rx="1.309" ry="6.465"/>
<path fill="#F9BB1F" d="M73.024,126.935c0,0-1.222,8.017-1.005,8.561c0.218,0.544-0.217-0.544-0.217-0.544s-3.263-2.284-3.263-2.61
	S73.024,126.935,73.024,126.935z"/>
<path fill="#EB742C" d="M81.179,136.847c0,0,6.237-4.024,8.351-7.646s-2.113,10.262-2.113,10.262L81.179,136.847z"/>
<path fill="#EB742C" d="M82.834,138.353c0,0,3.723,1.911,6.54,4.125c2.817,2.213,1.509-4.226,1.509-4.226L82.834,138.353z"/>
<path fill="#F9BB1F" d="M65.587,139.328l-5.734,3.723c0,0,2.213-5.836,3.018-6.842L65.587,139.328z"/>
</svg>
